<?xml version="1.0" encoding="UTF-8" standalone="no"?>
<!DOCTYPE svg PUBLIC "-//W3C//DTD SVG 1.0//EN" "http://www.w3.org/TR/2001/PR-SVG-20010719/DTD/svg10.dtd">
<svg width="31cm" height="33cm" viewBox="-544 -59 611 645" xmlns="http://www.w3.org/2000/svg" xmlns:xlink="http://www.w3.org/1999/xlink">
  <g>
    <rect style="fill: #ffffff" x="-284.667" y="83.7125" width="348" height="499.5"/>
    <rect style="fill: none; fill-opacity:0; stroke-width: 6; stroke: #000000" x="-284.667" y="83.7125" width="348" height="499.5"/>
  </g>
  <g>
    <line style="fill: none; fill-opacity:0; stroke-width: 4; stroke: #0000ff" x1="-111.956" y1="-4.03754" x2="-113.137" y2="69.0463"/>
    <polygon style="fill: #0000ff" points="-113.261,76.6953 -118.196,66.4142 -113.137,69.0463 -107.997,66.5791 "/>
    <polygon style="fill: none; fill-opacity:0; stroke-width: 4; stroke: #0000ff" points="-113.261,76.6953 -118.196,66.4142 -113.137,69.0463 -107.997,66.5791 "/>
  </g>
  <g>
    <line style="fill: none; fill-opacity:0; stroke-width: 4; stroke: #0000ff" x1="-352.956" y1="-27.9875" x2="-206.328" y2="-28.6809"/>
    <polygon style="fill: #0000ff" points="-198.828,-28.7164 -208.804,-23.6692 -206.328,-28.6809 -208.852,-33.6691 "/>
    <polygon style="fill: none; fill-opacity:0; stroke-width: 4; stroke: #0000ff" points="-198.828,-28.7164 -208.804,-23.6692 -206.328,-28.6809 -208.852,-33.6691 "/>
  </g>
  <text font-size="12.7998" style="fill: #000000;text-anchor:start;font-family:sans-serif;font-style:normal;font-weight:normal" x="-110.667" y="333.462">
    <tspan x="-110.667" y="333.462"></tspan>
  </text>
  <text font-size="12.7998" style="fill: #000000;text-anchor:start;font-family:sans-serif;font-style:normal;font-weight:normal" x="-110.667" y="333.462">
    <tspan x="-110.667" y="333.462"></tspan>
  </text>
  <text font-size="12.7998" style="fill: #000000;text-anchor:start;font-family:sans-serif;font-style:normal;font-weight:normal" x="-110.667" y="333.462">
    <tspan x="-110.667" y="333.462"></tspan>
  </text>
  <text font-size="11.2887" style="fill: #000000;text-anchor:start;font-family:sans-serif;font-style:normal;font-weight:normal" x="-151.5" y="523.417">
    <tspan x="-151.5" y="523.417">Human-Machine </tspan>
    <tspan x="-151.5" y="537.528">Interface (HMI)</tspan>
    <tspan x="-151.5" y="551.639">Controller</tspan>
    <tspan x="-151.5" y="565.75"></tspan>
  </text>
  <rect style="fill: none; fill-opacity:0; stroke-width: 2; stroke: #000000" x="-161.333" y="507.212" width="108" height="56.5377"/>
  <rect style="fill: none; fill-opacity:0; stroke-width: 2; stroke: #000000" x="-167.467" y="247.184" width="108" height="46.3333"/>
  <rect style="fill: none; fill-opacity:0; stroke-width: 2; stroke: #000000" x="-168.333" y="129.267" width="107.533" height="46.3333"/>
  <rect style="fill: none; fill-opacity:0; stroke-width: 2; stroke: #000000" x="-167.267" y="187.034" width="108" height="46.3333"/>
  <text font-size="12.7998" style="fill: #000000;text-anchor:start;font-family:sans-serif;font-style:normal;font-weight:normal" x="-142" y="147.227">
    <tspan x="-142" y="147.227">G-Code</tspan>
    <tspan x="-142" y="163.227">Interpreter</tspan>
  </text>
  <text font-size="12.7998" style="fill: #000000;text-anchor:start;font-family:sans-serif;font-style:normal;font-weight:normal" x="-139.5" y="208.81">
    <tspan x="-139.5" y="208.81">G-Code</tspan>
    <tspan x="-139.5" y="224.81">Interpolator</tspan>
  </text>
  <rect style="fill: none; fill-opacity:0; stroke-width: 2; stroke: #000000" x="-167" y="305.585" width="109.633" height="46.3333"/>
  <rect style="fill: none; fill-opacity:0; stroke-width: 2; stroke: #000000" x="-165.9" y="365.235" width="108" height="46.3333"/>
  <rect style="fill: none; fill-opacity:0; stroke-width: 2; stroke: #000000" x="-164.1" y="423.385" width="108" height="46.3333"/>
  <text font-size="12.7998" style="fill: #000000;text-anchor:start;font-family:sans-serif;font-style:normal;font-weight:normal" x="-141.833" y="441.56">
    <tspan x="-141.833" y="441.56">Services</tspan>
    <tspan x="-141.833" y="457.56">Controller</tspan>
  </text>
  <text font-size="12.7998" style="fill: #000000;text-anchor:start;font-family:sans-serif;font-style:normal;font-weight:normal" x="-140.333" y="320.185">
    <tspan x="-140.333" y="320.185">Error</tspan>
    <tspan x="-140.333" y="336.185">Controller</tspan>
  </text>
  <text font-size="12.7998" style="fill: #000000;text-anchor:start;font-family:sans-serif;font-style:normal;font-weight:normal" x="-139.467" y="266.35">
    <tspan x="-139.467" y="266.35">Motion</tspan>
    <tspan x="-139.467" y="282.35">Controller</tspan>
  </text>
  <text font-size="12.7998" style="fill: #000000;text-anchor:start;font-family:sans-serif;font-style:normal;font-weight:normal" x="-139.333" y="383.06">
    <tspan x="-139.333" y="383.06">Signal</tspan>
    <tspan x="-139.333" y="399.06">Driver</tspan>
  </text>
  <line style="fill: none; fill-opacity:0; stroke-width: 4; stroke: #ff0000" x1="16.6667" y1="153.212" x2="15.6667" y2="541.212"/>
  <g>
    <line style="fill: none; fill-opacity:0; stroke-width: 2; stroke: #ff0000" x1="6.93146" y1="211.083" x2="-49.5315" y2="210.33"/>
    <polygon style="fill: #ff0000" points="14.4308,211.183 4.36505,216.049 6.93146,211.083 4.49832,206.05 "/>
    <polygon style="fill: none; fill-opacity:0; stroke-width: 2; stroke: #ff0000" points="14.4308,211.183 4.36505,216.049 6.93146,211.083 4.49832,206.05 "/>
    <polygon style="fill: #ff0000" points="-57.0308,210.23 -46.9651,205.364 -49.5315,210.33 -47.0983,215.363 "/>
    <polygon style="fill: none; fill-opacity:0; stroke-width: 2; stroke: #ff0000" points="-57.0308,210.23 -46.9651,205.364 -49.5315,210.33 -47.0983,215.363 "/>
  </g>
  <rect style="fill: none; fill-opacity:0; stroke-width: 4.4; stroke-dasharray: 20 4 4 4 4 4; stroke: #ff0000" x="-267.333" y="120.379" width="311" height="374.583"/>
  <g>
    <rect style="fill: #00f4ff" x="-530.956" y="344.212" width="177.889" height="60.8"/>
    <rect style="fill: none; fill-opacity:0; stroke-width: 6; stroke: #0000ff" x="-530.956" y="344.212" width="177.889" height="60.8"/>
  </g>
  <g>
    <line style="fill: none; fill-opacity:0; stroke-width: 2; stroke: #ff0000" x1="-60.8" y1="152.434" x2="7.93108" y2="153.116"/>
    <polygon style="fill: #ff0000" points="15.4307,153.19 5.38158,158.091 7.93108,153.116 5.48082,148.091 "/>
    <polygon style="fill: none; fill-opacity:0; stroke-width: 2; stroke: #ff0000" points="15.4307,153.19 5.38158,158.091 7.93108,153.116 5.48082,148.091 "/>
  </g>
  <g>
    <line style="fill: none; fill-opacity:0; stroke-width: 2; stroke: #ff0000" x1="8.07741" y1="387.936" x2="-48.1642" y2="388.333"/>
    <polygon style="fill: #ff0000" points="15.5772,387.883 5.61277,392.953 8.07741,387.936 5.54218,382.954 "/>
    <polygon style="fill: none; fill-opacity:0; stroke-width: 2; stroke: #ff0000" points="15.5772,387.883 5.61277,392.953 8.07741,387.936 5.54218,382.954 "/>
    <polygon style="fill: #ff0000" points="-55.664,388.386 -45.6995,383.315 -48.1642,388.333 -45.6289,393.315 "/>
    <polygon style="fill: none; fill-opacity:0; stroke-width: 2; stroke: #ff0000" points="-55.664,388.386 -45.6995,383.315 -48.1642,388.333 -45.6289,393.315 "/>
  </g>
  <g>
    <line style="fill: none; fill-opacity:0; stroke-width: 2; stroke: #ff0000" x1="9.67803" y1="541.037" x2="-46.7849" y2="540.285"/>
    <polygon style="fill: #ff0000" points="17.1774,541.137 7.11162,546.004 9.67803,541.037 7.24489,536.004 "/>
    <polygon style="fill: none; fill-opacity:0; stroke-width: 2; stroke: #ff0000" points="17.1774,541.137 7.11162,546.004 9.67803,541.037 7.24489,536.004 "/>
    <polygon style="fill: #ff0000" points="-54.2842,540.185 -44.2185,535.319 -46.7849,540.285 -44.3517,545.318 "/>
    <polygon style="fill: none; fill-opacity:0; stroke-width: 2; stroke: #ff0000" points="-54.2842,540.185 -44.2185,535.319 -46.7849,540.285 -44.3517,545.318 "/>
  </g>
  <g>
    <line style="fill: none; fill-opacity:0; stroke-width: 2; stroke: #ff0000" x1="6.47803" y1="441.437" x2="-49.9849" y2="440.685"/>
    <polygon style="fill: #ff0000" points="13.9774,441.537 3.91162,446.404 6.47803,441.437 4.04489,436.404 "/>
    <polygon style="fill: none; fill-opacity:0; stroke-width: 2; stroke: #ff0000" points="13.9774,441.537 3.91162,446.404 6.47803,441.437 4.04489,436.404 "/>
    <polygon style="fill: #ff0000" points="-57.4842,440.585 -47.4185,435.719 -49.9849,440.685 -47.5517,445.718 "/>
    <polygon style="fill: none; fill-opacity:0; stroke-width: 2; stroke: #ff0000" points="-57.4842,440.585 -47.4185,435.719 -49.9849,440.685 -47.5517,445.718 "/>
  </g>
  <g>
    <line style="fill: none; fill-opacity:0; stroke-width: 2; stroke: #ff0000" x1="8.07736" y1="269.928" x2="-49.7308" y2="270.289"/>
    <polygon style="fill: #ff0000" points="15.5772,269.881 5.60867,274.943 8.07736,269.928 5.54615,264.944 "/>
    <polygon style="fill: none; fill-opacity:0; stroke-width: 2; stroke: #ff0000" points="15.5772,269.881 5.60867,274.943 8.07736,269.928 5.54615,264.944 "/>
    <polygon style="fill: #ff0000" points="-57.2306,270.336 -47.2621,265.274 -49.7308,270.289 -47.1996,275.274 "/>
    <polygon style="fill: none; fill-opacity:0; stroke-width: 2; stroke: #ff0000" points="-57.2306,270.336 -47.2621,265.274 -49.7308,270.289 -47.1996,275.274 "/>
  </g>
  <g>
    <line style="fill: none; fill-opacity:0; stroke-width: 2; stroke: #ff0000" x1="7.47803" y1="325.437" x2="-48.9849" y2="324.685"/>
    <polygon style="fill: #ff0000" points="14.9774,325.537 4.91162,330.404 7.47803,325.437 5.04489,320.404 "/>
    <polygon style="fill: none; fill-opacity:0; stroke-width: 2; stroke: #ff0000" points="14.9774,325.537 4.91162,330.404 7.47803,325.437 5.04489,320.404 "/>
    <polygon style="fill: #ff0000" points="-56.4842,324.585 -46.4185,319.719 -48.9849,324.685 -46.5517,329.718 "/>
    <polygon style="fill: none; fill-opacity:0; stroke-width: 2; stroke: #ff0000" points="-56.4842,324.585 -46.4185,319.719 -48.9849,324.685 -46.5517,329.718 "/>
  </g>
  <text font-size="12.8" style="fill: #0000ff;text-anchor:start;font-family:sans-serif;font-style:normal;font-weight:700" x="-212.333" y="106.212">
    <tspan x="-212.333" y="106.212">CNC Control Software (CSS)</tspan>
  </text>
  <text font-size="12.8" style="fill: #ff0000;text-anchor:start;font-family:sans-serif;font-style:normal;font-weight:700" x="-168.333" y="485.962">
    <tspan x="-168.333" y="485.962">CNC Control Loop</tspan>
  </text>
  <g>
    <line style="fill: none; fill-opacity:0; stroke-width: 2; stroke: #0000ff" x1="-171.068" y1="535.66" x2="-228.163" y2="536.706"/>
    <polygon style="fill: #0000ff" points="-163.569,535.522 -173.476,540.705 -171.068,535.66 -173.659,530.706 "/>
    <polygon style="fill: none; fill-opacity:0; stroke-width: 2; stroke: #0000ff" points="-163.569,535.522 -173.476,540.705 -171.068,535.66 -173.659,530.706 "/>
    <polygon style="fill: #0000ff" points="-235.662,536.844 -225.755,531.661 -228.163,536.706 -225.572,541.66 "/>
    <polygon style="fill: none; fill-opacity:0; stroke-width: 2; stroke: #0000ff" points="-235.662,536.844 -225.755,531.661 -228.163,536.706 -225.572,541.66 "/>
  </g>
  <line style="fill: none; fill-opacity:0; stroke-width: 4; stroke: #0000ff" x1="-236.731" y1="152.515" x2="-237.731" y2="540.515"/>
  <g>
    <line style="fill: none; fill-opacity:0; stroke-width: 2; stroke: #0000ff" x1="-165.9" y1="388.402" x2="-344.331" y2="389.55"/>
    <polygon style="fill: #0000ff" points="-351.831,389.598 -341.863,384.534 -344.331,389.55 -341.799,394.534 "/>
    <polygon style="fill: none; fill-opacity:0; stroke-width: 2; stroke: #0000ff" points="-351.831,389.598 -341.863,384.534 -344.331,389.55 -341.799,394.534 "/>
  </g>
  <g>
    <line style="fill: none; fill-opacity:0; stroke-width: 2; stroke: #0000ff" x1="-170.885" y1="443.661" x2="-227.981" y2="444.707"/>
    <polygon style="fill: #0000ff" points="-163.387,443.523 -173.293,448.705 -170.885,443.661 -173.477,438.707 "/>
    <polygon style="fill: none; fill-opacity:0; stroke-width: 2; stroke: #0000ff" points="-163.387,443.523 -173.293,448.705 -170.885,443.661 -173.477,438.707 "/>
    <polygon style="fill: #0000ff" points="-235.479,444.845 -225.573,439.662 -227.981,444.707 -225.39,449.66 "/>
    <polygon style="fill: none; fill-opacity:0; stroke-width: 2; stroke: #0000ff" points="-235.479,444.845 -225.573,439.662 -227.981,444.707 -225.39,449.66 "/>
  </g>
  <g>
    <rect style="fill: #ffff00" x="-540.733" y="-54.9875" width="187.777" height="54"/>
    <rect style="fill: none; fill-opacity:0; stroke-width: 6; stroke: #000000" x="-540.733" y="-54.9875" width="187.777" height="54"/>
  </g>
  <g>
    <line style="fill: none; fill-opacity:0; stroke-width: 2; stroke: #0000ff" x1="-172.885" y1="331.661" x2="-229.981" y2="332.707"/>
    <polygon style="fill: #0000ff" points="-165.387,331.523 -175.293,336.705 -172.885,331.661 -175.477,326.707 "/>
    <polygon style="fill: none; fill-opacity:0; stroke-width: 2; stroke: #0000ff" points="-165.387,331.523 -175.293,336.705 -172.885,331.661 -175.477,326.707 "/>
    <polygon style="fill: #0000ff" points="-237.479,332.845 -227.573,327.662 -229.981,332.707 -227.39,337.66 "/>
    <polygon style="fill: none; fill-opacity:0; stroke-width: 2; stroke: #0000ff" points="-237.479,332.845 -227.573,327.662 -229.981,332.707 -227.39,337.66 "/>
  </g>
  <g>
    <line style="fill: none; fill-opacity:0; stroke-width: 2; stroke: #0000ff" x1="-173.885" y1="264.911" x2="-230.981" y2="265.957"/>
    <polygon style="fill: #0000ff" points="-166.387,264.773 -176.293,269.955 -173.885,264.911 -176.477,259.957 "/>
    <polygon style="fill: none; fill-opacity:0; stroke-width: 2; stroke: #0000ff" points="-166.387,264.773 -176.293,269.955 -173.885,264.911 -176.477,259.957 "/>
    <polygon style="fill: #0000ff" points="-238.479,266.095 -228.573,260.912 -230.981,265.957 -228.39,270.91 "/>
    <polygon style="fill: none; fill-opacity:0; stroke-width: 2; stroke: #0000ff" points="-238.479,266.095 -228.573,260.912 -230.981,265.957 -228.39,270.91 "/>
  </g>
  <g>
    <line style="fill: none; fill-opacity:0; stroke-width: 2; stroke: #0000ff" x1="-243.692" y1="456.313" x2="-355.333" y2="457.462"/>
    <polygon style="fill: #0000ff" points="-236.192,456.235 -246.14,461.338 -243.692,456.313 -246.243,451.339 "/>
    <polygon style="fill: none; fill-opacity:0; stroke-width: 2; stroke: #0000ff" points="-236.192,456.235 -246.14,461.338 -243.692,456.313 -246.243,451.339 "/>
  </g>
  <g>
    <rect style="fill: #00f4ff" x="-528.956" y="418.812" width="176" height="72.4"/>
    <rect style="fill: none; fill-opacity:0; stroke-width: 6; stroke: #0000ff" x="-528.956" y="418.812" width="176" height="72.4"/>
  </g>
  <text font-size="12.7998" style="fill: #000000;text-anchor:start;font-family:sans-serif;font-style:normal;font-weight:normal" x="-519.956" y="364.212">
    <tspan x="-519.956" y="364.212">CNC Hardware</tspan>
    <tspan x="-519.956" y="380.212">Interface Driver</tspan>
    <tspan x="-519.956" y="396.212">Device</tspan>
  </text>
  <g>
    <line style="fill: none; fill-opacity:0; stroke-width: 2; stroke: #0000ff" x1="-404.782" y1="301.447" x2="-404.13" y2="337.978"/>
    <polygon style="fill: #0000ff" points="-404.916,293.948 -399.738,303.857 -404.782,301.447 -409.737,304.036 "/>
    <polygon style="fill: none; fill-opacity:0; stroke-width: 2; stroke: #0000ff" points="-404.916,293.948 -399.738,303.857 -404.782,301.447 -409.737,304.036 "/>
    <polygon style="fill: #0000ff" points="-403.996,345.477 -409.174,335.568 -404.13,337.978 -399.175,335.389 "/>
    <polygon style="fill: none; fill-opacity:0; stroke-width: 2; stroke: #0000ff" points="-403.996,345.477 -409.174,335.568 -404.13,337.978 -399.175,335.389 "/>
  </g>
  <text font-size="12.7998" style="fill: #000000;text-anchor:start;font-family:sans-serif;font-style:normal;font-weight:normal" x="-519.956" y="437.212">
    <tspan x="-519.956" y="437.212">CNC Input Devices</tspan>
    <tspan x="-519.956" y="453.212">(Mouse, Joystick,</tspan>
    <tspan x="-519.956" y="469.212">Keyboard, Touch</tspan>
    <tspan x="-519.956" y="485.212">Screen)</tspan>
  </text>
  <g>
    <line style="fill: none; fill-opacity:0; stroke-width: 2; stroke: #0000ff" x1="-238.968" y1="537.599" x2="-341.221" y2="536.333"/>
    <polygon style="fill: #0000ff" points="-348.72,536.24 -338.659,531.364 -341.221,536.333 -338.783,541.364 "/>
    <polygon style="fill: none; fill-opacity:0; stroke-width: 2; stroke: #0000ff" points="-348.72,536.24 -338.659,531.364 -341.221,536.333 -338.783,541.364 "/>
  </g>
  <g>
    <rect style="fill: #00f4ff" x="-528.956" y="506.512" width="178.133" height="70.4"/>
    <rect style="fill: none; fill-opacity:0; stroke-width: 6; stroke: #0000ff" x="-528.956" y="506.512" width="178.133" height="70.4"/>
  </g>
  <text font-size="12.7998" style="fill: #000000;text-anchor:start;font-family:sans-serif;font-style:normal;font-weight:normal" x="-520.956" y="526.212">
    <tspan x="-520.956" y="526.212">CNC Output Devices</tspan>
    <tspan x="-520.956" y="542.212">(Display Monitor, Touch</tspan>
    <tspan x="-520.956" y="558.212">Screen Monitor)</tspan>
  </text>
  <g>
    <line style="fill: none; fill-opacity:0; stroke-width: 2; stroke: #0000ff" x1="-521.914" y1="120.448" x2="-520.998" y2="334.976"/>
    <polygon style="fill: #0000ff" points="-521.946,112.949 -516.904,122.927 -521.914,120.448 -526.904,122.97 "/>
    <polygon style="fill: none; fill-opacity:0; stroke-width: 2; stroke: #0000ff" points="-521.946,112.949 -516.904,122.927 -521.914,120.448 -526.904,122.97 "/>
    <polygon style="fill: #0000ff" points="-520.966,342.476 -526.008,332.498 -520.998,334.976 -516.008,332.455 "/>
    <polygon style="fill: none; fill-opacity:0; stroke-width: 2; stroke: #0000ff" points="-520.966,342.476 -526.008,332.498 -520.998,334.976 -516.008,332.455 "/>
  </g>
  <g>
    <rect style="fill: #00f4ff" x="-454.956" y="222.462" width="100.6" height="70.55"/>
    <rect style="fill: none; fill-opacity:0; stroke-width: 6; stroke: #0000ff" x="-454.956" y="222.462" width="100.6" height="70.55"/>
  </g>
  <text font-size="12.7998" style="fill: #000000;text-anchor:start;font-family:sans-serif;font-style:normal;font-weight:normal" x="-444.956" y="242.462">
    <tspan x="-444.956" y="242.462">Servo-Driver</tspan>
    <tspan x="-444.956" y="258.462">Servo-Motor</tspan>
    <tspan x="-444.956" y="274.462">X-Axis</tspan>
  </text>
  <g>
    <rect style="fill: #00f4ff" x="-505.356" y="132.762" width="100.6" height="70.55"/>
    <rect style="fill: none; fill-opacity:0; stroke-width: 6; stroke: #0000ff" x="-505.356" y="132.762" width="100.6" height="70.55"/>
  </g>
  <g>
    <rect style="fill: #00f4ff" x="-540.756" y="39.0625" width="100.6" height="70.55"/>
    <rect style="fill: none; fill-opacity:0; stroke-width: 6; stroke: #0000ff" x="-540.756" y="39.0625" width="100.6" height="70.55"/>
  </g>
  <g>
    <line style="fill: none; fill-opacity:0; stroke-width: 2; stroke: #0000ff" x1="-470.931" y1="214.448" x2="-470.624" y2="335.419"/>
    <polygon style="fill: #0000ff" points="-470.95,206.949 -465.925,216.936 -470.931,214.448 -475.925,216.961 "/>
    <polygon style="fill: none; fill-opacity:0; stroke-width: 2; stroke: #0000ff" points="-470.95,206.949 -465.925,216.936 -470.931,214.448 -475.925,216.961 "/>
    <polygon style="fill: #0000ff" points="-470.605,342.919 -475.63,332.932 -470.624,335.419 -465.63,332.907 "/>
    <polygon style="fill: none; fill-opacity:0; stroke-width: 2; stroke: #0000ff" points="-470.605,342.919 -475.63,332.932 -470.624,335.419 -465.63,332.907 "/>
  </g>
  <text font-size="12.7998" style="fill: #000000;text-anchor:start;font-family:sans-serif;font-style:normal;font-weight:normal" x="-492.956" y="153.712">
    <tspan x="-492.956" y="153.712">Servo-Driver</tspan>
    <tspan x="-492.956" y="169.712">Servo-Motor</tspan>
    <tspan x="-492.956" y="185.712">Y-Axis</tspan>
  </text>
  <g>
    <line style="fill: none; fill-opacity:0; stroke-width: 2; stroke: #0000ff" x1="-352.956" y1="360.712" x2="-244.692" y2="361.63"/>
    <polygon style="fill: #0000ff" points="-237.192,361.694 -247.234,366.609 -244.692,361.63 -247.149,356.609 "/>
    <polygon style="fill: none; fill-opacity:0; stroke-width: 2; stroke: #0000ff" points="-237.192,361.694 -247.234,366.609 -244.692,361.63 -247.149,356.609 "/>
  </g>
  <text font-size="12.7998" style="fill: #000000;text-anchor:start;font-family:sans-serif;font-style:normal;font-weight:normal" x="-530.956" y="62.7125">
    <tspan x="-530.956" y="62.7125">Servo-Driver</tspan>
    <tspan x="-530.956" y="78.7125">Servo-Motor</tspan>
    <tspan x="-530.956" y="94.7125">Z-Axis</tspan>
  </text>
  <g>
    <rect style="fill: #ffff00" x="-198.356" y="-55.7375" width="178.4" height="54"/>
    <rect style="fill: none; fill-opacity:0; stroke-width: 6; stroke: #000000" x="-198.356" y="-55.7375" width="178.4" height="54"/>
  </g>
  <text font-size="12.7998" style="fill: #000000;text-anchor:start;font-family:sans-serif;font-style:normal;font-weight:normal" x="-522.956" y="-31.0375">
    <tspan x="-522.956" y="-31.0375">Computer-Aided</tspan>
    <tspan x="-522.956" y="-15.0375">Design (CAD)</tspan>
  </text>
  <text font-size="12.7998" style="fill: #000000;text-anchor:start;font-family:sans-serif;font-style:normal;font-weight:normal" x="-180.956" y="-31.0375">
    <tspan x="-180.956" y="-31.0375">Computer-Aided</tspan>
    <tspan x="-180.956" y="-15.0375">Manufactuting (CAM)</tspan>
  </text>
  <text font-size="12.7998" style="fill: #000000;text-anchor:start;font-family:sans-serif;font-style:normal;font-weight:normal" x="-101.956" y="29.2125">
    <tspan x="-101.956" y="29.2125">G-Code File</tspan>
    <tspan x="-101.956" y="45.2125">(RS274D)</tspan>
  </text>
  <text font-size="12.7998" style="fill: #000000;text-anchor:start;font-family:sans-serif;font-style:normal;font-weight:normal" x="-320.956" y="-6.03754">
    <tspan x="-320.956" y="-6.03754">2D/3D Model</tspan>
    <tspan x="-320.956" y="9.96246">Drawing </tspan>
    <tspan x="-320.956" y="25.9625">(SVG, STL)</tspan>
  </text>
</svg>
